<svg width="20" height="18" viewBox="0 0 20 18" fill="none" xmlns="http://www.w3.org/2000/svg">
<path d="M17.8802 6H14.875L10.6 0.3C10.5301 0.206853 10.4396 0.13125 10.3354 0.0791795C10.2313 0.0271087 10.1164 0 10 0C9.88357 0 9.76874 0.0271087 9.66459 0.0791795C9.56045 0.13125 9.46986 0.206853 9.4 0.3L5.125 6H2.11985C1.71558 5.99938 1.32758 6.15912 1.04093 6.44418C0.754283 6.72925 0.592399 7.11636 0.590786 7.52063C0.589913 7.66354 0.610615 7.80577 0.652192 7.9425L2.8211 15.5897C2.96213 16.0881 3.26208 16.5268 3.67532 16.8391C4.08857 17.1514 4.59249 17.3202 5.11047 17.3198H14.8895C15.4076 17.3182 15.9112 17.1491 16.3251 16.8377C16.7391 16.5263 17.0413 16.0893 17.1864 15.592L19.3581 7.93453C19.3681 7.89827 19.3754 7.86128 19.3797 7.82391L19.4045 7.59281C19.4074 7.5687 19.4088 7.54444 19.4088 7.52016C19.407 7.11606 19.2451 6.72913 18.9586 6.44418C18.6721 6.15923 18.2843 5.9995 17.8802 6ZM10 2.00016L13 6H7L10 2.00016ZM10 13.4845C9.65085 13.4829 9.31002 13.3778 9.02052 13.1826C8.73102 12.9874 8.50583 12.7108 8.37336 12.3878C8.2409 12.0647 8.20711 11.7097 8.27625 11.3674C8.34538 11.0252 8.51435 10.7111 8.76183 10.4648C9.00931 10.2185 9.3242 10.051 9.66677 9.98352C10.0093 9.91601 10.3642 9.9515 10.6866 10.0855C11.0091 10.2195 11.2846 10.446 11.4784 10.7364C11.6722 11.0269 11.7756 11.3682 11.7756 11.7173C11.773 12.1865 11.5848 12.6356 11.2521 12.9664C10.9193 13.2972 10.4692 13.4828 10 13.4827V13.4845Z" fill="white"/>
</svg>
