<svg width="16" height="16" viewBox="0 0 16 16" fill="none" xmlns="http://www.w3.org/2000/svg">
<path d="M9.06071 7.99999L12.0295 5.03124C12.1704 4.89059 12.2496 4.69973 12.2498 4.50065C12.25 4.30157 12.171 4.11057 12.0304 3.96968C11.8897 3.82878 11.6989 3.74953 11.4998 3.74935C11.3007 3.74917 11.1097 3.82809 10.9688 3.96874L8.00008 6.93749L5.03133 3.96874C4.89043 3.82784 4.69934 3.74869 4.50008 3.74869C4.30082 3.74869 4.10973 3.82784 3.96883 3.96874C3.82793 4.10964 3.74878 4.30073 3.74878 4.49999C3.74878 4.69925 3.82793 4.89034 3.96883 5.03124L6.93758 7.99999L3.96883 10.9687C3.82793 11.1096 3.74878 11.3007 3.74878 11.5C3.74878 11.6992 3.82793 11.8903 3.96883 12.0312C4.10973 12.1721 4.30082 12.2513 4.50008 12.2513C4.69934 12.2513 4.89043 12.1721 5.03133 12.0312L8.00008 9.06249L10.9688 12.0312C11.1097 12.1721 11.3008 12.2513 11.5001 12.2513C11.6993 12.2513 11.8904 12.1721 12.0313 12.0312C12.1722 11.8903 12.2514 11.6992 12.2514 11.5C12.2514 11.3007 12.1722 11.1096 12.0313 10.9687L9.06071 7.99999Z" fill="#23A9EA"/>
</svg>
