<svg width="12" height="16" viewBox="0 0 12 16" fill="none" xmlns="http://www.w3.org/2000/svg">
<path d="M3.76853 2.25C3.76853 3.5 4.76723 4.5 6.0156 4.5C7.23277 4.5 8.26268 3.5 8.26268 2.25C8.26268 1.03125 7.23277 0 6.0156 0C4.76723 0 3.76853 1.03125 3.76853 2.25ZM11.6957 2.3125C11.3212 1.90625 10.6658 1.90625 10.2913 2.3125L7.57607 5H4.42393L1.70871 2.3125C1.3342 1.90625 0.678804 1.90625 0.304291 2.3125C-0.10143 2.6875 -0.10143 3.34375 0.304291 3.71875L3.26918 6.6875V15C3.26918 15.5625 3.70611 16 4.26788 16H4.76723C5.29779 16 5.76593 15.5625 5.76593 15V11.5H6.26528V15C6.26528 15.5625 6.70221 16 7.26398 16H7.76333C8.29389 16 8.76203 15.5625 8.76203 15V6.6875L11.6957 3.71875C12.1014 3.34375 12.1014 2.6875 11.6957 2.3125Z" fill="#BACDD6"/>
</svg>
