<svg width="24" height="24" viewBox="0 0 24 24" fill="none" xmlns="http://www.w3.org/2000/svg">
<path d="M21 0H3C1.34315 0 0 1.34315 0 3V21C0 22.6569 1.34315 24 3 24H21C22.6569 24 24 22.6569 24 21V3C24 1.34315 22.6569 0 21 0Z" fill="#BACDD6"/>
<path d="M9.02429 12.0001C9.02429 10.3619 10.3522 9.02429 12.0001 9.02429C13.6479 9.02429 14.9758 10.3522 14.9758 12.0001C14.9758 13.6479 13.6479 14.9758 12.0001 14.9758C10.3619 14.9758 9.02429 13.6479 9.02429 12.0001ZM7.41524 12.0001C7.41524 14.5299 9.47017 16.5849 12.0001 16.5849C14.5299 16.5849 16.5849 14.5299 16.5849 12.0001C16.5849 9.47017 14.5299 7.41524 12.0001 7.41524C9.47017 7.41524 7.41524 9.47017 7.41524 12.0001ZM15.6931 7.24077C15.6931 7.83204 16.1681 8.307 16.7593 8.307C17.3506 8.307 17.8256 7.83204 17.8256 7.24077C17.8256 6.64949 17.3506 6.17453 16.7593 6.17453C16.1681 6.16484 15.6931 6.64949 15.6931 7.24077ZM8.39424 19.2602C7.52187 19.2214 7.04691 19.076 6.73673 18.95C6.31993 18.7852 6.01944 18.5913 5.70926 18.2812C5.39909 17.971 5.20523 17.6705 5.04044 17.2537C4.91443 16.9435 4.76904 16.4686 4.73027 15.5962C4.69149 14.656 4.6818 14.3749 4.6818 11.9904C4.6818 9.60587 4.69149 9.32477 4.73027 8.38455C4.76904 7.51217 4.91443 7.04691 5.04044 6.72704C5.20523 6.31023 5.39909 6.00975 5.70926 5.69957C6.01944 5.38939 6.31993 5.19553 6.73673 5.03075C7.04691 4.90474 7.52187 4.75935 8.39424 4.72057C9.33447 4.6818 9.61556 4.67211 12.0001 4.67211C14.3845 4.67211 14.6656 4.6818 15.6059 4.72057C16.4782 4.75935 16.9435 4.90474 17.2634 5.03075C17.6802 5.19553 17.9807 5.38939 18.2908 5.69957C18.601 6.00975 18.7949 6.31023 18.9597 6.72704C19.0857 7.03721 19.2311 7.51217 19.2698 8.38455C19.3086 9.32477 19.3183 9.60587 19.3183 11.9904C19.3183 14.3749 19.3086 14.656 19.2698 15.5962C19.2311 16.4686 19.0857 16.9435 18.9597 17.2537C18.7949 17.6705 18.601 17.971 18.2908 18.2812C17.9807 18.5913 17.6802 18.7852 17.2634 18.95C16.9532 19.076 16.4782 19.2214 15.6059 19.2602C14.6656 19.2989 14.3845 19.3086 12.0001 19.3086C9.61556 19.3183 9.33447 19.3086 8.39424 19.2602ZM8.3167 3.13091C7.36678 3.16968 6.71734 3.32477 6.15514 3.54771C5.56387 3.78035 5.06952 4.08083 4.57518 4.57518C4.08083 5.06952 3.77065 5.57356 3.54771 6.15514C3.32477 6.72703 3.17938 7.36678 3.13091 8.3167C3.08245 9.26661 3.07275 9.57679 3.07275 12.0001C3.07275 14.4233 3.08245 14.7238 3.13091 15.6834C3.16968 16.6333 3.32477 17.2828 3.54771 17.845C3.78035 18.4362 4.08083 18.9306 4.57518 19.4249C5.06952 19.9193 5.57356 20.2295 6.15514 20.4524C6.72703 20.6753 7.36678 20.8207 8.3167 20.8692C9.26661 20.908 9.57679 20.9274 12.0001 20.9274C14.4233 20.9274 14.7238 20.9177 15.6834 20.8692C16.6333 20.8304 17.2828 20.6753 17.8547 20.4524C18.4459 20.2198 18.9403 19.9193 19.4346 19.4249C19.929 18.9306 20.2392 18.4265 20.4621 17.845C20.685 17.2731 20.8304 16.6333 20.8789 15.6834C20.9177 14.7335 20.9371 14.4233 20.9371 12.0001C20.9371 9.57679 20.9274 9.27631 20.8789 8.3167C20.8401 7.36678 20.685 6.71734 20.4621 6.15514C20.2295 5.56387 19.929 5.06952 19.4346 4.57518C18.9403 4.08083 18.4362 3.77065 17.8547 3.54771C17.2828 3.32477 16.6333 3.17938 15.6834 3.13091C14.7335 3.09214 14.4233 3.07275 12.0001 3.07275C9.57679 3.07275 9.27631 3.08245 8.3167 3.13091Z" fill="white"/>
</svg>
