<svg width="32" height="28" viewBox="0 0 32 28" fill="none" xmlns="http://www.w3.org/2000/svg">
<path d="M16.0007 28.0013C22.4828 28.0013 27.7376 22.6966 27.7376 16.1528C27.7376 9.60899 22.4828 4.30421 16.0007 4.30421C9.5185 4.30421 4.26368 9.60899 4.26368 16.1528C4.26368 22.6966 9.5185 28.0013 16.0007 28.0013Z" fill="#23A9EA"/>
<path d="M13.0585 5.17144L13.6119 1.29286C13.7186 0.550663 14.3484 0 15.0902 0H16.9085C17.6516 0 18.2814 0.550663 18.3868 1.29286L18.9402 5.17144H13.0585Z" fill="#23A9EA"/>
<path d="M21.6122 6.2874L24.7204 3.93977C25.3146 3.49019 26.146 3.55138 26.6717 4.08076L27.9577 5.37894C28.4834 5.90965 28.5427 6.74894 28.0973 7.34882L25.7718 10.4879L21.6122 6.2874Z" fill="#23A9EA"/>
<path d="M6.22819 10.4879L3.90398 7.35015C3.45864 6.75027 3.51925 5.91098 4.04365 5.38026L5.3296 4.08208C5.85532 3.55137 6.68671 3.49152 7.28093 3.94109L10.3891 6.28872L6.22819 10.4879Z" fill="#23A9EA"/>
<path d="M5.12274 19.1232L1.28069 18.5646C0.545477 18.4582 0 17.8224 0 17.0722V15.2367C0 14.4865 0.545477 13.8507 1.28069 13.7443L5.12274 13.1857V19.1232Z" fill="#23A9EA"/>
<path d="M26.8773 13.1827L30.7193 13.7413C31.4545 13.8477 32 14.4848 32 15.2337V17.0692C32 17.8194 31.4545 18.4552 30.7193 18.5616L26.8773 19.1202V13.1827Z" fill="#23A9EA"/>
<path d="M11.1124 18.7119C12.5125 18.7119 13.6475 17.5661 13.6475 16.1528C13.6475 14.7394 12.5125 13.5937 11.1124 13.5937C9.71239 13.5937 8.57742 14.7394 8.57742 16.1528C8.57742 17.5661 9.71239 18.7119 11.1124 18.7119Z" fill="white"/>
<path d="M20.8889 18.7119C22.2889 18.7119 23.4239 17.5661 23.4239 16.1528C23.4239 14.7394 22.2889 13.5937 20.8889 13.5937C19.4888 13.5937 18.3539 14.7394 18.3539 16.1528C18.3539 17.5661 19.4888 18.7119 20.8889 18.7119Z" fill="white"/>
</svg>
