<svg width="24" height="24" viewBox="0 0 24 24" fill="none" xmlns="http://www.w3.org/2000/svg">
<path d="M16.375 6.3125C16.375 5.60156 15.7734 5 15.0625 5H8.9375C8.19922 5 7.625 5.60156 7.625 6.3125V17.6875C7.625 18.4258 8.19922 19 8.9375 19H15.0625C15.7734 19 16.375 18.4258 16.375 17.6875V6.3125ZM19 7.89844C19 7.81641 18.918 7.73438 18.8359 7.73438H18.3438V7.57031C18.3438 7.48828 18.2617 7.40625 18.1797 7.40625H17.0312V8.71875H18.1797C18.2617 8.71875 18.3438 8.66406 18.3438 8.55469V8.39062H18.8359C18.918 8.39062 19 8.33594 19 8.22656V7.89844ZM19 10.5234C19 10.4414 18.918 10.3594 18.8359 10.3594H18.3438V10.1953C18.3438 10.1133 18.2617 10.0312 18.1797 10.0312H17.0312V11.3438H18.1797C18.2617 11.3438 18.3438 11.2891 18.3438 11.1797V11.0156H18.8359C18.918 11.0156 19 10.9609 19 10.8516V10.5234ZM19 13.1484C19 13.0664 18.918 12.9844 18.8359 12.9844H18.3438V12.8203C18.3438 12.7383 18.2617 12.6562 18.1797 12.6562H17.0312V13.9688H18.1797C18.2617 13.9688 18.3438 13.9141 18.3438 13.8047V13.6406H18.8359C18.918 13.6406 19 13.5859 19 13.4766V13.1484ZM19 15.7734C19 15.6914 18.918 15.6094 18.8359 15.6094H18.3438V15.4453C18.3438 15.3633 18.2617 15.2812 18.1797 15.2812H17.0312V16.5938H18.1797C18.2617 16.5938 18.3438 16.5391 18.3438 16.4297V16.2656H18.8359C18.918 16.2656 19 16.2109 19 16.1016V15.7734ZM5.82031 15.2812C5.71094 15.2812 5.65625 15.3633 5.65625 15.4453V15.6094H5.16406C5.05469 15.6094 5 15.6914 5 15.7734V16.1016C5 16.2109 5.05469 16.2656 5.16406 16.2656H5.65625V16.4297C5.65625 16.5391 5.71094 16.5938 5.82031 16.5938H6.96875V15.2812H5.82031ZM5.82031 12.6562C5.71094 12.6562 5.65625 12.7383 5.65625 12.8203V12.9844H5.16406C5.05469 12.9844 5 13.0664 5 13.1484V13.4766C5 13.5859 5.05469 13.6406 5.16406 13.6406H5.65625V13.8047C5.65625 13.9141 5.71094 13.9688 5.82031 13.9688H6.96875V12.6562H5.82031ZM5.82031 10.0312C5.71094 10.0312 5.65625 10.1133 5.65625 10.1953V10.3594H5.16406C5.05469 10.3594 5 10.4414 5 10.5234V10.8516C5 10.9609 5.05469 11.0156 5.16406 11.0156H5.65625V11.1797C5.65625 11.2891 5.71094 11.3438 5.82031 11.3438H6.96875V10.0312H5.82031ZM5.82031 7.40625C5.71094 7.40625 5.65625 7.48828 5.65625 7.57031V7.73438H5.16406C5.05469 7.73438 5 7.81641 5 7.89844V8.22656C5 8.33594 5.05469 8.39062 5.16406 8.39062H5.65625V8.55469C5.65625 8.66406 5.71094 8.71875 5.82031 8.71875H6.96875V7.40625H5.82031Z" fill="#BACDD6"/>
<rect x="0.5" y="0.5" width="23" height="23" rx="2.5" stroke="#BACDD6"/>
</svg>
