<svg width="18" height="18" viewBox="0 0 18 18" fill="none" xmlns="http://www.w3.org/2000/svg">
<path d="M17.5633 7.06719C17.1594 5.1668 16.0883 3.43711 14.5469 2.19688C12.9706 0.93567 11.0118 0.249004 8.99301 0.250001C6.61332 0.250001 4.39067 1.1668 2.72895 2.83164C1.12309 4.44258 0.243011 6.56953 0.250042 8.81914C0.250096 10.4685 0.734307 12.0815 1.64262 13.4582L1.81254 13.6945L0.875042 17.75L5.35942 16.6344C5.35942 16.6344 5.44926 16.6645 5.51567 16.6898C5.58207 16.7152 6.15356 16.9344 6.75981 17.1039C7.26371 17.2445 8.31215 17.4555 9.13364 17.4555C11.4637 17.4555 13.6395 16.5531 15.2598 14.9141C16.8657 13.2879 17.75 11.1258 17.75 8.82383C17.7502 8.23332 17.6876 7.64447 17.5633 7.06719Z" fill="#A0B4BE"/>
</svg>
