<svg width="17" height="14" viewBox="0 0 17 14" fill="none" xmlns="http://www.w3.org/2000/svg">
<path d="M10.625 2.625C11.3156 2.625 11.9 2.05078 11.9 1.3125C11.9 0.601562 11.3156 0 10.625 0C9.90781 0 9.35 0.601562 9.35 1.3125C9.35 2.05078 9.90781 2.625 10.625 2.625ZM10.5188 5.93359C10.625 6.04297 10.8641 6.125 11.0234 6.125H12.75C13.2016 6.125 13.6 5.74219 13.6 5.25C13.6 4.78516 13.2016 4.375 12.75 4.375H11.3422L9.45625 2.81641C9.32344 2.73438 9.08438 2.625 8.925 2.625C8.73906 2.625 8.5 2.73438 8.36719 2.84375L5.39219 5.46875C5.23281 5.60547 5.1 5.90625 5.1 6.125C5.1 6.39844 5.25938 6.72656 5.47188 6.86328L7.65 8.36719V11.375C7.65 11.8672 8.02188 12.25 8.5 12.25C8.95156 12.25 9.35 11.8672 9.35 11.375V7.875C9.32344 7.62891 9.16406 7.30078 8.95156 7.16406L7.8625 6.39844L9.40312 5.03125L10.5188 5.93359ZM13.6 7C11.7141 7 10.2 8.58594 10.2 10.5C10.2 12.4414 11.7141 14 13.6 14C15.4594 14 17 12.4414 17 10.5C17 8.58594 15.4594 7 13.6 7ZM13.6 12.25C12.6438 12.25 11.9 11.4844 11.9 10.5C11.9 9.54297 12.6438 8.75 13.6 8.75C14.5297 8.75 15.3 9.54297 15.3 10.5C15.3 11.4844 14.5297 12.25 13.6 12.25ZM3.4 7C1.51406 7 0 8.58594 0 10.5C0 12.4414 1.51406 14 3.4 14C5.25938 14 6.8 12.4414 6.8 10.5C6.8 8.58594 5.25938 7 3.4 7ZM3.4 12.25C2.44375 12.25 1.7 11.4844 1.7 10.5C1.7 9.54297 2.44375 8.75 3.4 8.75C4.32969 8.75 5.1 9.54297 5.1 10.5C5.1 11.4844 4.32969 12.25 3.4 12.25Z" fill="#BACDD6"/>
</svg>
