<svg width="7" height="18" viewBox="0 0 7 18" fill="none" xmlns="http://www.w3.org/2000/svg">
<path d="M1.75781 0.667969C2.20312 0.222656 2.74219 0 3.375 0C4.00781 0 4.53516 0.222656 4.95703 0.667969C5.40234 1.08984 5.625 1.61719 5.625 2.25C5.625 2.88281 5.40234 3.42188 4.95703 3.86719C4.53516 4.28906 4.00781 4.5 3.375 4.5C2.74219 4.5 2.20312 4.28906 1.75781 3.86719C1.33594 3.42188 1.125 2.88281 1.125 2.25C1.125 1.61719 1.33594 1.08984 1.75781 0.667969ZM5.0625 5.0625C5.53125 5.0625 5.92969 5.22656 6.25781 5.55469C6.58594 5.88281 6.75 6.28125 6.75 6.75V11.5312C6.75 11.7656 6.66797 11.9648 6.50391 12.1289C6.33984 12.293 6.14062 12.375 5.90625 12.375H5.34375V17.1562C5.34375 17.3906 5.26172 17.5898 5.09766 17.7539C4.93359 17.918 4.73438 18 4.5 18H2.25C2.01562 18 1.81641 17.918 1.65234 17.7539C1.48828 17.5898 1.40625 17.3906 1.40625 17.1562V12.375H0.84375C0.609375 12.375 0.410156 12.293 0.246094 12.1289C0.0820312 11.9648 0 11.7656 0 11.5312V6.75C0 6.28125 0.164062 5.88281 0.492188 5.55469C0.820312 5.22656 1.21875 5.0625 1.6875 5.0625H2.07422C2.94141 5.46094 3.80859 5.46094 4.67578 5.0625H5.0625Z" fill="#BACDD6"/>
</svg>
