<svg width="24" height="24" viewBox="0 0 24 24" fill="none" xmlns="http://www.w3.org/2000/svg">
<rect width="24" height="24" rx="3" fill="#BACDD6"/>
<path d="M17.4361 12.2023C17.4361 12.2023 19.5122 9.27603 19.7146 8.31603C19.784 7.97483 19.6337 7.7782 19.2751 7.7782C19.2751 7.7782 18.078 7.7782 17.4766 7.7782C17.066 7.7782 16.9156 7.95748 16.7884 8.21772C16.7884 8.21772 15.8168 10.2881 14.6313 11.5951C14.2496 12.0172 14.0587 12.1445 13.8505 12.1445C13.6828 12.1445 13.6019 12.0057 13.6019 11.624V8.28711C13.6019 7.81868 13.5498 7.68567 13.1624 7.68567H10.2766C10.0568 7.68567 9.91802 7.8129 9.91802 7.98639C9.91802 8.42591 10.5889 8.52422 10.5889 9.71555V12.1734C10.5889 12.6649 10.5599 12.8616 10.3286 12.8616C9.70983 12.8616 8.24091 10.7334 7.41971 8.31603C7.25778 7.82446 7.0785 7.68567 6.61007 7.68567H4.8173C4.55705 7.68567 4.36621 7.86495 4.36621 8.12519C4.36621 8.60519 4.92717 10.8317 7.14211 13.81C8.6226 15.8168 10.5773 16.8982 12.3354 16.8982C13.4052 16.8982 13.6655 16.7189 13.6655 16.2678V14.7295C13.6655 14.3478 13.8159 14.1801 14.0356 14.1801C14.2843 14.1801 14.718 14.2611 15.7358 15.2674C16.9445 16.4182 17.0255 16.904 17.6848 16.904H19.7031C19.9113 16.904 20.1021 16.8057 20.1021 16.4645C20.1021 16.0134 19.5122 15.2037 18.6043 14.238C18.2342 13.7464 17.6269 13.2086 17.4361 12.9599C17.1643 12.6707 17.2452 12.503 17.4361 12.2023Z" fill="white"/>
</svg>
