<svg width="12" height="18" viewBox="0 0 12 18" fill="none" xmlns="http://www.w3.org/2000/svg">
<path d="M9.06727 2.88281C8.71757 3.21094 8.29293 3.375 7.79336 3.375C7.29378 3.375 6.86915 3.21094 6.51944 2.88281C6.16974 2.55469 5.99489 2.15625 5.99489 1.6875C5.99489 1.21875 6.16974 0.820312 6.51944 0.492188C6.86915 0.164063 7.29378 0 7.79336 0C8.29293 0 8.71757 0.164063 9.06727 0.492188C9.41697 0.820312 9.59182 1.21875 9.59182 1.6875C9.59182 2.15625 9.41697 2.55469 9.06727 2.88281ZM11.3154 8.61328C11.6151 8.75391 11.8149 8.97656 11.9148 9.28125C12.0397 9.5625 12.0272 9.84375 11.8774 10.125C11.7275 10.4062 11.4902 10.5938 11.1655 10.6875C10.8657 10.7812 10.566 10.7578 10.2662 10.6172L9.40448 10.2305C8.82997 9.94922 8.43031 9.51562 8.20551 8.92969L8.01817 8.33203L7.38121 10.7578L9.06727 12.5156C9.34204 12.7734 9.52938 13.0898 9.62929 13.4648L10.4536 16.5938C10.5285 16.8984 10.4786 17.1797 10.3037 17.4375C10.1538 17.7188 9.91655 17.8945 9.59182 17.9648C9.2671 18.0352 8.95487 17.9883 8.65512 17.8242C8.38036 17.6836 8.20551 17.4609 8.13057 17.1562L7.45614 14.5547C7.35623 14.2031 7.16889 13.8867 6.89412 13.6055L4.64604 11.2852C4.07153 10.6992 3.88419 10.0078 4.08402 9.21094L4.64604 7.10156L3.67187 7.48828C3.37213 7.58203 3.15981 7.75781 3.03491 8.01562L2.77264 8.50781C2.62276 8.76562 2.39796 8.95312 2.09821 9.07031C1.79847 9.16406 1.49872 9.14062 1.19898 9C0.899234 8.85938 0.699404 8.64844 0.599489 8.36719C0.499574 8.0625 0.524553 7.76953 0.674425 7.48828L0.899234 6.99609C1.29889 6.24609 1.92336 5.70703 2.77264 5.37891C2.87255 5.35547 3.0474 5.29688 3.29719 5.20312C3.57196 5.08594 3.74681 5.01562 3.82174 4.99219C3.92166 4.94531 4.07153 4.88672 4.27136 4.81641C4.49617 4.74609 4.65853 4.69922 4.75844 4.67578C4.88334 4.65234 5.03321 4.62891 5.20806 4.60547C5.38291 4.55859 5.55776 4.53516 5.73261 4.53516C5.90746 4.51172 6.08232 4.5 6.25717 4.5C7.13142 4.5 7.91825 4.74609 8.61765 5.23828C9.31706 5.73047 9.81663 6.375 10.1164 7.17188L10.4536 8.19141L11.3154 8.61328ZM2.77264 13.5703L3.522 11.7422C3.72183 11.9766 4.32132 12.6094 5.32047 13.6406L4.79591 14.8359C4.67102 15.1172 4.49617 15.3633 4.27136 15.5742L2.06074 17.6836C1.81096 17.8945 1.5237 18 1.19898 18C0.874255 18 0.587 17.8828 0.337213 17.6484C0.112404 17.4375 0 17.1797 0 16.875C0 16.5703 0.112404 16.3008 0.337213 16.0664L2.21062 14.3086C2.4604 14.0977 2.64774 13.8516 2.77264 13.5703Z" fill="#BACDD6"/>
</svg>
